<?xml version="1.0" encoding="UTF-8"?>
<svg width="500" height="500" viewBox="0 0 500 500" fill="none" xmlns="http://www.w3.org/2000/svg">
	<defs>
		<linearGradient id="swirl-gradient-1" x1="100%" y1="100%" x2="0%" y2="0%">
			<stop offset="0%" style="stop-color:#bf3abb;stop-opacity:1" />
			<stop offset="50%" style="stop-color:#7c71d8;stop-opacity:1" />
			<stop offset="100%" style="stop-color:#2e2066;stop-opacity:1" />
		</linearGradient>
		<linearGradient id="swirl-gradient-2" x1="0%" y1="100%" x2="100%" y2="0%">
			<stop offset="0%" style="stop-color:#2e2066;stop-opacity:0.6" />
			<stop offset="100%" style="stop-color:#bf3abb;stop-opacity:0.6" />
		</linearGradient>
		<filter id="glow" x="-50%" y="-50%" width="200%" height="200%">
			<feGaussianBlur in="SourceGraphic" stdDeviation="4" />
			<feColorMatrix type="matrix" values="1 0 0 0 0.5  0 1 0 0 0  0 0 1 0 1  0 0 0 0.5 0" />
		</filter>
	</defs>

	<!-- Main spiral -->
	<g transform="translate(250, 250)">
		<!-- Outer decorative lines -->
		<path d="M0,0 
				 Q120,0 170,-50 
				 T200,-200 
				 Q200,-280 120,-200 
				 T0,-160 
				 Q-120,-160 -170,-110 
				 T-200,40 
				 Q-200,120 -120,40 
				 T0,0" fill="url(#swirl-gradient-1)" style="mix-blend-mode: soft-light;">
			<animateTransform attributeName="transform" type="rotate" from="360 0 0" to="0 0 0" dur="25s"
				repeatCount="indefinite" />
		</path>

		<!-- Inner spiral -->
		<path d="M0,0 
				 Q72,0 102,-30 
				 T120,-120 
				 Q120,-168 72,-120 
				 T0,-96 
				 Q-72,-96 -102,-66 
				 T-120,24 
				 Q-120,72 -72,24 
				 T0,0" fill="url(#swirl-gradient-2)" style="mix-blend-mode: overlay;" filter="url(#glow)">
			<animateTransform attributeName="transform" type="rotate" from="0 0 0" to="360 0 0" dur="15s"
				repeatCount="indefinite" />
		</path>

		<!-- Decorative elements -->
		<g>
			<!-- Pulsing circles -->
			<circle cx="0" cy="-120" r="3" fill="#bf3abb">
				<animate attributeName="r" values="3;5;3" dur="3s" repeatCount="indefinite" />
			</circle>
			<circle cx="120" cy="0" r="3" fill="#7c71d8">
				<animate attributeName="r" values="5;3;5" dur="3s" repeatCount="indefinite" />
			</circle>
			<circle cx="-120" cy="0" r="3" fill="#2e2066">
				<animate attributeName="r" values="3;5;3" dur="3s" repeatCount="indefinite" />
			</circle>

			<!-- Floating particles -->
			<g>
				<circle cx="60" cy="-60" r="2" fill="#bf3abb" opacity="0.6">
					<animate attributeName="cy" values="-60;-55;-60" dur="4s" repeatCount="indefinite" />
				</circle>
				<circle cx="-60" cy="60" r="2" fill="#2e2066" opacity="0.6">
					<animate attributeName="cx" values="-60;-55;-60" dur="4s" repeatCount="indefinite" />
				</circle>
			</g>
		</g>
	</g>
</svg>